<svg xmlns="http://www.w3.org/2000/svg">
  <symbol id="svg-moon-on" viewBox="0 0 4.4979 4.4979">
    <path d="m2.1197 0.03031c-1.1714 0.0772-2.1186 1.0104-2.1187 2.1999-2.037e-4 1.2404 1.0086 2.2488 2.249 2.249 0.93833-1.667e-4 1.7453-0.58039 2.0805-1.4056 2.645e-4 -7.937e-4 7.937e-4 -0.00132 0.00106-0.00212 7.937e-4 -0.00159 0.00132-0.0031 0.00212-0.00466 0.013758-0.034226 0.027675-0.06831 0.039791-0.10335 0.070924-0.19704 0.11169-0.40367 0.12092-0.61288 1.878e-4 -0.00132 2.646e-4 -0.00275 5.291e-4 -0.00413 0.00106-0.00616 0.00185-0.012356 0.00212-0.0186 1.773e-4 -0.00447 1.773e-4 -0.00897 0-0.013441-5.292e-4 -0.00571-0.00106-0.011403-0.00212-0.017066v-0.00106-5.292e-4c-0.00106-0.00556-0.00212-0.011086-0.00362-0.016536v-0.00106c-2.645e-4 -0.00132-7.937e-4 -0.00238-0.00106-0.00362-0.00132-0.00455-0.00291-0.00902-0.00466-0.013441-5.291e-4 -0.00132-0.00106-0.00238-0.00159-0.00362-0.00159-0.00439-0.00362-0.0087-0.00569-0.012912-0.00185-0.00386-4e-3 -0.00765-0.00619-0.011377-7.938e-4 -0.00159-0.00159-0.00312-0.00265-0.00466-7.937e-4 -0.00106-0.00159-0.00212-0.00265-0.0031-0.00278-0.00392-0.00569-0.0077-0.00878-0.011377-7.937e-4 -0.00106-0.00159-0.00212-0.00265-0.0031-0.00315-0.00307-0.00643-0.00598-0.00982-0.00878-0.00407-0.00437-0.00839-0.00849-0.012912-0.012409-1.72e-4 -1.72e-4 -2.646e-4 -2.646e-4 -5.292e-4 -5.291e-4 -0.00106-7.938e-4 -0.00212-0.00185-0.0031-0.00265-0.00368-0.00265-0.00749-0.00497-0.011377-0.00722-0.00132-7.938e-4 -0.00275-0.00132-0.00413-0.00212-0.00159-0.00106-0.00341-0.00212-0.00516-0.0031-0.00357-0.00159-0.0072-0.00323-0.010848-0.00466-7.937e-4 -1.772e-4 -0.00132-2.645e-4 -0.00212-5.291e-4 -0.00489-0.00238-0.0099-0.00437-0.014975-0.00619-0.00426-0.00159-0.00855-0.00294-0.012912-0.00413-0.00159-2.646e-4 -0.0031-7.937e-4 -0.00466-0.00106-0.00212-2.646e-4 -0.00413-7.938e-4 -0.00619-0.00106-0.00376-7.938e-4 -0.00757-0.00159-0.011377-0.00212-0.00362-2.646e-4 -0.00722-5.292e-4 -0.010848-5.292e-4 -0.00466-1.931e-4 -0.00931-1.931e-4 -0.013943 0-0.00587 2.117e-4 -0.011748 7.938e-4 -0.017568 0.00159h-5.292e-4c-0.00574 0.00106-0.011456 0.00238-0.017039 0.00413-0.00471 0.00106-0.00937 0.00265-0.013944 0.00413-0.00185 5.292e-4 -0.00381 0.00132-0.00569 0.00212-0.00238 0.00106-0.00484 0.00212-0.00725 0.0031-0.00402 0.00185-0.00799 0.00362-0.01188 0.00569-5.292e-4 2.645e-4 -0.00106 7.937e-4 -0.00159 0.00106-0.00352 0.00185-0.00696 0.00402-0.010345 0.00619-0.00265 0.00159-0.00521 0.00304-0.00775 0.00466-0.00299 0.00185-0.00593 0.00405-0.00878 0.00619-5.292e-4 7.937e-4 -0.00106 0.00132-0.00159 0.00212-0.00357 0.00278-0.00701 0.00571-0.010345 0.00878-0.00421 0.00426-0.00818 0.00876-0.01188 0.013441-0.00212 0.0027-0.00423 0.00545-0.00619 0.00825-0.00212 0.00286-0.00423 0.00579-0.00619 0.00878-5.292e-4 7.937e-4 -0.00106 0.00132-0.00159 0.00212-7.937e-4 0.00159-0.00185 0.00344-0.00265 0.00516-0.24531 0.45291-0.71738 0.73479-1.2325 0.73486-0.77696 1.297e-4 -1.4031-0.62603-1.403-1.403 2.6e-6 -0.063598 0.00458-0.12622 0.012912-0.1881l5.291e-4 -0.00265c0.00106-0.00759 0.00238-0.015161 0.00362-0.022728 0.00934-0.060928 0.021749-0.12133 0.038759-0.17983 0.10977-0.37732 0.37485-0.69751 0.74052-0.8723 0.05489-0.021696 0.094464-0.07049 0.10439-0.12867 0.00132-0.00751 0.00212-0.015108 0.00265-0.022728 0.00265-0.08159-0.068339-0.11765-0.10318-0.12853-0.073012-0.00886-0.14726-0.00659-0.2229 0.00238z"/>
  </symbol>
  <symbol id="svg-moon-off" viewBox="0 0 4.4979 4.4979">
    <path d="m2.1199 0.027322c-1.1714 0.0772-2.1187 1.0107-2.1188 2.2001-2.02e-4 1.2404 1.0085 2.2487 2.2489 2.2489 1.1946-2.098e-4 2.1805-0.9383 2.2445-2.1285 2.008e-4 -1e-3 3.968e-4 -3e-3 5.556e-4 -4e-3 8.996e-4 -6e-3 0.00151-0.0123 0.00169-0.0185 1.799e-4 -4e-3 1.799e-4 -9e-3 0-0.0135-2.646e-4 -6e-3 -8.467e-4 -0.0116-0.00169-0.0173 1e-6 -3.307e-4 1e-6 -6.694e-4 0-1e-3v-5.503e-4c-0.00101-5e-3 -0.0023-0.0109-0.0038-0.0163 1e-6 -3.308e-4 1e-6 -6.694e-4 0-1e-3 -3.969e-4 -1e-3 -7.938e-4 -3e-3 -0.00119-4e-3 -0.0013-4e-3 -0.0027-9e-3 -0.0043-0.013-5.557e-4 -1e-3 -0.00111-3e-3 -0.00169-4e-3 -0.00169-4e-3 -0.0035-8e-3 -0.0055-0.0125-0.00201-4e-3 -0.0042-8e-3 -0.0065-0.0114-8.731e-4 -2e-3 -0.0018-3e-3 -0.0027-5e-3 -7.144e-4 -1e-3 -0.00151-2e-3 -0.0022-3e-3 -0.0027-4e-3 -0.0056-8e-3 -0.0087-0.0114-8.996e-4 -1e-3 -0.0018-2e-3 -0.0027-3e-3 -0.0031-3e-3 -0.0064-6e-3 -0.0098-9e-3 -0.0041-4e-3 -0.0085-8e-3 -0.01301-0.012-1.849e-4 -1.799e-4 -3.704e-4 -3.704e-4 -5.556e-4 -5.503e-4 -0.00111-1e-3 -0.0022-2e-3 -0.0033-3e-3 -0.0037-2e-3 -0.0075-5e-3 -0.011369-7e-3 -0.0013-6.8e-4 -0.00249-1e-3 -0.0038-2e-3 -0.0018-1e-3 -0.0036-2e-3 -0.0055-3e-3 -0.0036-2e-3 -0.0072-3e-3 -0.010851-5e-3 -5.556e-4 -1.9e-4 -0.00111-3.81e-4 -0.00169-5.609e-4 -5e-3 -2e-3 -0.01002-4e-3 -0.015171-6e-3 -0.0043-2e-3 -0.0086-3e-3 -0.01301-4e-3 -0.0014-3.492e-4 -0.0029-6.905e-4 -0.0043-1e-3 -0.0022-3.81e-4 -0.0043-7.091e-4 -0.0065-1e-3 -0.0038-7.991e-4 -0.0076-1e-3 -0.011369-2e-3 -0.0036-4.498e-4 -0.0072-7.805e-4 -0.010851-1e-3 -0.0047-2e-4 -0.0094-2e-4 -0.014089 0-0.0058 3.704e-4 -0.011599 1e-3 -0.017341 2e-3h-5.557e-4c-0.0057 1e-3 -0.011279 2e-3 -0.016809 4e-3 -0.0048 1e-3 -0.0095 2e-3 -0.014089 4e-3 -0.00201 6.297e-4 -4e-3 1e-3 -6e-3 2e-3 -0.00241 9.499e-4 -0.0047 2e-3 -7e-3 3e-3 -0.0041 2e-3 -8e-3 4e-3 -0.01193 6e-3 -5.821e-4 3.307e-4 -0.00111 6.588e-4 -0.00169 1e-3 -0.0035 2e-3 -0.0069 4e-3 -0.010279 6e-3 -0.00259 2e-3 -0.0051 3e-3 -0.0076 5e-3 -3e-3 2e-3 -0.0059 4e-3 -0.0087 6e-3 -5.821e-4 6.589e-4 -0.00111 1e-3 -0.00169 2e-3 -0.0035 3e-3 -7e-3 6e-3 -0.010279 9e-3 -0.0042 4e-3 -0.0082 9e-3 -0.01193 0.0135-0.00209 3e-3 -0.0041 5e-3 -6e-3 8e-3 -0.0023 3e-3 -0.0044 6e-3 -0.0065 9e-3 -3.969e-4 6.588e-4 -7.938e-4 1e-3 -0.00119 2e-3 -9.26e-4 2e-3 -0.0018 3e-3 -0.0027 5e-3 -0.24539 0.45289-0.71779 0.73473-1.2329 0.7348-0.77696 1.301e-4 -1.4031-0.62598-1.403-1.403 3.11e-5 -0.54096 0.30902-1.0323 0.79658-1.2653 0.06266-0.0248 0.10462-0.0844 0.10675-0.15172 0.0024-0.0814-0.03879-0.10871-0.11846-0.12584-0.06349-5e-3 -0.12645-0.0103-0.20745-2.9e-4zm-0.40914 0.36663c-0.3114 0.30944-0.50556 0.71993-0.50559 1.1754-1.471e-4 0.95956 0.78154 1.7412 1.7411 1.7411 0.3974-6e-5 0.7749-0.13611 1.0767-0.3739-0.28184 0.70735-0.96948 1.2034-1.7731 1.2035-1.0578-1.101e-4 -1.9109-0.85508-1.9107-1.9129 7.8e-5 -0.87014 0.5773-1.6014 1.3715-1.8332z"/>
  </symbol>
  <symbol id="svg-arrow-right" viewBox="0 0 4.4979 4.4979">
    <path d="m1.5166e-6 2.2023c-1.9e-5 0.051 0.01948 0.1 0.05735 0.14013l1.3196 1.4112c0.07492 0.0796 0.19995 0.084 0.28028 0.010001 0.0811-0.075 0.08575-0.20161 0.01039-0.28235l-1.0095-1.0791h3.64c0.11048 2.6e-4 0.20011-0.0894 0.19983-0.19983-5.292e-4 -0.10987-0.08995-0.19855-0.19983-0.19827h-3.6176l0.98304-0.98252c0.07851-0.0779 0.07851-0.20492 0-0.28287-0.03631-0.0354-0.08476-0.0556-0.13546-0.0566v-5.4e-4c-0.05491-2e-3 -0.10824 0.0186-0.1474 0.0571l-1.3178 1.3199c-0.04131 0.0412-0.06238 0.0913-0.0628 0.14377z"/>
  </symbol>
  <symbol id="svg-arrow-down" viewBox="0 0 4.4979 4.4979">
    <path d="m1.2583 1.6776a0.23151 0.23151 0 0 0-0.01447 5.3e-4 0.23151 0.23151 0 0 0-0.14418 0.0667 0.23151 0.23151 0 0 0 0 0.32814l0.98599 0.98443a0.23151 0.23151 0 0 0 0.32814 0l0.98444-0.98443a0.23151 0.23151 0 0 0 0-0.32814 0.23151 0.23151 0 0 0-0.18345-0.0667 0.23151 0.23151 0 0 0-0.14263 0.0667l-0.82217 0.82217-0.82217-0.82217a0.23151 0.23151 0 0 0-0.1695-0.0672z"/>
  </symbol>
  <symbol id="svg-search" viewBox="0 0 4.4979 4.4979">
    <path d="m1.6821-8.1949e-7c-0.90588 2.6002e-4 -1.645 0.73959-1.645 1.6455-6.8e-5 0.90588 0.73908 1.6452 1.645 1.6455 0.34872 2.98e-5 0.65469-0.13396 0.92139-0.32033l1.4914 1.4914c0.18641 0.14091 0.47632-0.16774 0.32238-0.32238l-1.4756-1.4756c0.2291-0.28282 0.38598-0.62773 0.38595-1.0185 6.72e-5 -0.90612-0.73936-1.6456-1.6455-1.6455zm0 0.45561c0.65986-6e-5 1.1899 0.53 1.1899 1.1899 5e-5 0.65985-0.53001 1.1899-1.1899 1.1899-0.65969-1.802e-4 -1.1894-0.53018-1.1894-1.1899-4.9e-5 -0.65969 0.52967-1.1897 1.1894-1.1899z"/>
  </symbol>
</svg>